<svg width="191" height="25" viewBox="0 0 191 25" fill="none" xmlns="http://www.w3.org/2000/svg">
<path d="M12.992 24.352C11.264 24.352 9.664 24.064 8.192 23.488C6.74133 22.8907 5.46133 22.0587 4.352 20.992C3.264 19.9253 2.41067 18.688 1.792 17.28C1.19467 15.8507 0.896 14.304 0.896 12.64C0.896 10.9547 1.20533 9.408 1.824 8C2.464 6.57067 3.34933 5.33333 4.48 4.288C5.61067 3.22133 6.92267 2.4 8.416 1.824C9.93067 1.22667 11.5413 0.927999 13.248 0.927999C15.2747 0.927999 17.1093 1.29067 18.752 2.016C20.3947 2.72 21.728 3.70133 22.752 4.96L18.912 8.8C18.144 7.88267 17.3013 7.2 16.384 6.752C15.4667 6.28267 14.4 6.048 13.184 6.048C11.9467 6.048 10.8373 6.32533 9.856 6.88C8.896 7.41333 8.128 8.17067 7.552 9.152C6.976 10.1333 6.688 11.2853 6.688 12.608C6.688 13.9307 6.95467 15.0933 7.488 16.096C8.04267 17.0987 8.78933 17.8773 9.728 18.432C10.688 18.9867 11.7867 19.264 13.024 19.264C14.2613 19.264 15.3067 19.0293 16.16 18.56C17.0347 18.0907 17.696 17.408 18.144 16.512C18.6133 15.616 18.848 14.5493 18.848 13.312L22.72 15.808L12.384 15.552V10.88H24.608V11.744C24.608 14.4533 24.1173 16.7467 23.136 18.624C22.1547 20.5013 20.7893 21.9307 19.04 22.912C17.312 23.872 15.296 24.352 12.992 24.352ZM33.8885 24.352C32.1392 24.352 30.5925 24.0107 29.2485 23.328C27.9045 22.624 26.8485 21.6533 26.0805 20.416C25.3125 19.1787 24.9285 17.76 24.9285 16.16C24.9285 14.5813 25.3018 13.184 26.0485 11.968C26.7952 10.7307 27.8085 9.76 29.0885 9.056C30.3898 8.33067 31.8512 7.968 33.4725 7.968C35.0512 7.968 36.4485 8.30933 37.6645 8.992C38.9018 9.65333 39.8618 10.5813 40.5445 11.776C41.2485 12.9493 41.6005 14.2933 41.6005 15.808C41.6005 16.128 41.5792 16.4587 41.5365 16.8C41.5152 17.12 41.4512 17.4933 41.3445 17.92L27.5525 17.984V14.4L39.1365 14.304L36.6405 15.872C36.6192 14.9973 36.4912 14.2827 36.2565 13.728C36.0218 13.152 35.6805 12.7147 35.2325 12.416C34.7845 12.1173 34.2192 11.968 33.5365 11.968C32.8325 11.968 32.2245 12.1387 31.7125 12.48C31.2005 12.8213 30.8058 13.3013 30.5285 13.92C30.2512 14.5387 30.1125 15.2853 30.1125 16.16C30.1125 17.056 30.2618 17.824 30.5605 18.464C30.8592 19.0827 31.2858 19.552 31.8405 19.872C32.3952 20.192 33.0778 20.352 33.8885 20.352C34.6565 20.352 35.3285 20.224 35.9045 19.968C36.5018 19.712 37.0352 19.3173 37.5045 18.784L40.4165 21.696C39.6485 22.5707 38.7098 23.232 37.6005 23.68C36.5125 24.128 35.2752 24.352 33.8885 24.352ZM44.8873 24V1.888H50.4553V24H44.8873ZM41.4313 12.992V8.352H64.0553V12.992H41.4313ZM55.0313 24V1.888H60.5993V24H55.0313ZM72.6872 24.352C70.9379 24.352 69.3912 24.0107 68.0472 23.328C66.7032 22.624 65.6472 21.6533 64.8792 20.416C64.1112 19.1787 63.7272 17.76 63.7272 16.16C63.7272 14.5813 64.1006 13.184 64.8472 11.968C65.5939 10.7307 66.6072 9.76 67.8872 9.056C69.1886 8.33067 70.6499 7.968 72.2712 7.968C73.8499 7.968 75.2472 8.30933 76.4632 8.992C77.7006 9.65333 78.6606 10.5813 79.3433 11.776C80.0473 12.9493 80.3993 14.2933 80.3993 15.808C80.3993 16.128 80.3779 16.4587 80.3352 16.8C80.3139 17.12 80.2499 17.4933 80.1432 17.92L66.3512 17.984V14.4L77.9352 14.304L75.4392 15.872C75.4179 14.9973 75.2899 14.2827 75.0552 13.728C74.8206 13.152 74.4792 12.7147 74.0312 12.416C73.5832 12.1173 73.0179 11.968 72.3352 11.968C71.6312 11.968 71.0232 12.1387 70.5112 12.48C69.9992 12.8213 69.6046 13.3013 69.3272 13.92C69.0499 14.5387 68.9112 15.2853 68.9112 16.16C68.9112 17.056 69.0606 17.824 69.3592 18.464C69.6579 19.0827 70.0846 19.552 70.6392 19.872C71.1939 20.192 71.8766 20.352 72.6872 20.352C73.4552 20.352 74.1272 20.224 74.7032 19.968C75.3006 19.712 75.8339 19.3173 76.3032 18.784L79.2153 21.696C78.4472 22.5707 77.5086 23.232 76.3993 23.68C75.3112 24.128 74.0739 24.352 72.6872 24.352ZM81.542 24V8.352H87.11V24H81.542ZM87.11 15.488L84.614 13.376C85.2327 11.6053 86.054 10.272 87.078 9.376C88.102 8.48 89.4353 8.032 91.078 8.032C91.8247 8.032 92.4647 8.128 92.998 8.32C93.5527 8.512 94.022 8.81067 94.406 9.216L91.174 13.536C91.0033 13.344 90.758 13.1947 90.438 13.088C90.1393 12.96 89.798 12.896 89.414 12.896C88.6887 12.896 88.1233 13.12 87.718 13.568C87.3127 13.9947 87.11 14.6347 87.11 15.488ZM97.842 24L106.642 1.312H112.178L120.882 24H114.898L108.338 4.928H110.418L103.698 24H97.842ZM103.186 20.032V15.488H115.698V20.032H103.186ZM127.882 24.32C126.367 24.32 125.034 23.968 123.882 23.264C122.73 22.56 121.823 21.6 121.162 20.384C120.522 19.1467 120.202 17.7493 120.202 16.192C120.202 14.6133 120.522 13.2053 121.162 11.968C121.823 10.7307 122.719 9.77067 123.85 9.088C125.002 8.384 126.346 8.032 127.882 8.032C128.863 8.032 129.781 8.21333 130.634 8.576C131.487 8.91733 132.202 9.408 132.778 10.048C133.354 10.688 133.695 11.4133 133.802 12.224V19.872C133.695 20.6827 133.354 21.4293 132.778 22.112C132.202 22.7947 131.487 23.3387 130.634 23.744C129.781 24.128 128.863 24.32 127.882 24.32ZM128.874 19.36C129.493 19.36 130.026 19.232 130.474 18.976C130.922 18.6987 131.274 18.3253 131.53 17.856C131.807 17.3653 131.946 16.8 131.946 16.16C131.946 15.5413 131.818 14.9973 131.562 14.528C131.306 14.0587 130.943 13.6853 130.474 13.408C130.026 13.1307 129.503 12.992 128.906 12.992C128.309 12.992 127.775 13.1307 127.306 13.408C126.858 13.6853 126.495 14.0693 126.218 14.56C125.962 15.0293 125.834 15.5627 125.834 16.16C125.834 16.7787 125.962 17.3333 126.218 17.824C126.474 18.2933 126.837 18.6667 127.306 18.944C127.775 19.2213 128.298 19.36 128.874 19.36ZM137.194 24H131.722V19.808L132.522 15.968L131.626 12.192V0.671999H137.194V24ZM139.483 24V8.352H145.051V24H139.483ZM149.307 24V14.944C149.307 14.2827 149.105 13.7707 148.699 13.408C148.294 13.024 147.793 12.832 147.195 12.832C146.769 12.832 146.395 12.9173 146.075 13.088C145.755 13.2587 145.499 13.504 145.307 13.824C145.137 14.1227 145.051 14.496 145.051 14.944L142.875 14.08C142.875 12.8213 143.153 11.744 143.707 10.848C144.262 9.952 145.009 9.25867 145.947 8.768C146.886 8.27733 147.953 8.032 149.147 8.032C150.214 8.032 151.174 8.288 152.027 8.8C152.902 9.29067 153.595 9.984 154.107 10.88C154.619 11.776 154.875 12.832 154.875 14.048V24H149.307ZM159.131 24V14.944C159.131 14.2827 158.929 13.7707 158.523 13.408C158.118 13.024 157.617 12.832 157.019 12.832C156.614 12.832 156.241 12.9173 155.899 13.088C155.579 13.2587 155.323 13.504 155.131 13.824C154.961 14.1227 154.875 14.496 154.875 14.944L151.611 14.784C151.654 13.376 151.963 12.1707 152.539 11.168C153.115 10.1653 153.905 9.39733 154.907 8.864C155.931 8.30933 157.083 8.032 158.363 8.032C159.579 8.032 160.667 8.288 161.627 8.8C162.587 9.312 163.334 10.0587 163.867 11.04C164.422 12 164.699 13.152 164.699 14.496V24H159.131ZM166.616 24V8.352H172.216V24H166.616ZM169.4 6.528C168.568 6.528 167.875 6.25067 167.32 5.696C166.766 5.12 166.488 4.40533 166.488 3.552C166.488 2.72 166.766 2.016 167.32 1.44C167.875 0.863998 168.568 0.575998 169.4 0.575998C170.275 0.575998 170.979 0.863998 171.512 1.44C172.067 2.016 172.344 2.72 172.344 3.552C172.344 4.40533 172.067 5.12 171.512 5.696C170.979 6.25067 170.275 6.528 169.4 6.528ZM184.645 24V15.168C184.645 14.4427 184.431 13.8773 184.005 13.472C183.578 13.0453 183.034 12.832 182.373 12.832C181.925 12.832 181.519 12.928 181.157 13.12C180.815 13.312 180.549 13.5787 180.357 13.92C180.165 14.2613 180.069 14.6773 180.069 15.168L177.893 14.144C177.893 12.8853 178.17 11.808 178.725 10.912C179.279 9.99467 180.037 9.29067 180.997 8.8C181.978 8.288 183.087 8.032 184.325 8.032C185.455 8.032 186.458 8.29867 187.333 8.832C188.229 9.344 188.933 10.0373 189.445 10.912C189.957 11.7867 190.213 12.7787 190.213 13.888V24H184.645ZM174.501 24V8.352H180.069V24H174.501Z" fill="#121212"/>
</svg>
